# xmcd
#
# Track frame offsets:
#	150
#	16600
#	39300
#	63896
#	80565
#	99859
#	128003
#	145885
#	170329
#	203937
#	221973
#	236150
#
# Disc length: 3328 seconds
#
# Revision: 0
# Processed by: cddbd v1.5.2PL0 Copyright (c) Steve Scherf et al.
# Submitted via: EasyCDDAExtractor 9.1.0.1
#
DISCID=9d0cfe0c
DTITLE=Talltones - Talltones 2
DYEAR=1900
DGENRE=
TTITLE0=Up From the Skies
TTITLE1=Dupapa
TTITLE2=Heartbreak Hotel
TTITLE3=Lonely at the Top
TTITLE4=Alabama Song
TTITLE5=The Windmills of Your Mind
TTITLE6=Schotzale
TTITLE7=Marie
TTITLE8=Riders on the Storm
TTITLE9=Melancholie
TTITLE10=Eat the Rich
TTITLE11=Die Freiheit
EXTD=
EXTT0=
EXTT1=
EXTT2=
EXTT3=
EXTT4=
EXTT5=
EXTT6=
EXTT7=
EXTT8=
EXTT9=
EXTT10=
EXTT11=
PLAYORDER=
